<svg id="Layer_1" data-name="Layer 1" xmlns="http://www.w3.org/2000/svg" xmlns:xlink="http://www.w3.org/1999/xlink" viewBox="0 0 382.69 280.01"><defs><style>.cls-1{fill:url(#linear-gradient);}.cls-2{fill:url(#linear-gradient-2);}.cls-3{fill:url(#linear-gradient-3);}.cls-4{fill:url(#linear-gradient-4);}.cls-5{fill:url(#linear-gradient-5);}.cls-6{fill:url(#linear-gradient-6);}.cls-7{fill:url(#linear-gradient-7);}.cls-8{fill:url(#linear-gradient-8);}.cls-9{fill:url(#linear-gradient-9);}.cls-10{fill:url(#linear-gradient-10);}.cls-11{opacity:0.1;}.cls-12{fill:#fff;}</style><linearGradient id="linear-gradient" x1="43.02" y1="97.6" x2="114.62" y2="169.2" gradientTransform="translate(230.92 172.84) rotate(135)" gradientUnits="userSpaceOnUse"><stop offset="0" stop-color="#3e63ae"/><stop offset="0.14" stop-color="#3759a8"/><stop offset="0.5" stop-color="#28449c"/><stop offset="0.74" stop-color="#233d98"/><stop offset="0.98" stop-color="#233d98"/></linearGradient><linearGradient id="linear-gradient-2" x1="78" y1="85.87" x2="95.95" y2="85.87" gradientTransform="translate(209.19 85.08) rotate(135)" gradientUnits="userSpaceOnUse"><stop offset="0" stop-color="#4686c6"/><stop offset="0.7" stop-color="#4583c4"/><stop offset="0.98" stop-color="#4583c4"/></linearGradient><linearGradient id="linear-gradient-3" x1="95.8" y1="113.65" x2="133.71" y2="113.65" gradientTransform="translate(276.27 112.86) rotate(135)" xlink:href="#linear-gradient-2"/><linearGradient id="linear-gradient-4" x1="60.64" y1="108.27" x2="90.01" y2="108.27" gradientTransform="translate(205.14 131.57) rotate(135)" xlink:href="#linear-gradient-2"/><linearGradient id="linear-gradient-5" x1="91.91" y1="138.49" x2="119.17" y2="138.49" gradientTransform="translate(278.09 161.78) rotate(135)" xlink:href="#linear-gradient-2"/><linearGradient id="linear-gradient-6" x1="42.19" y1="123.59" x2="64.27" y2="123.59" gradientTransform="translate(178.25 173.34) rotate(135)" xlink:href="#linear-gradient-2"/><linearGradient id="linear-gradient-7" x1="65.7" y1="143.72" x2="81.02" y2="143.72" gradientTransform="translate(226.86 193.47) rotate(135)" xlink:href="#linear-gradient-2"/><linearGradient id="linear-gradient-8" x1="23.13" y1="148.21" x2="57.11" y2="148.21" gradientTransform="translate(173.29 224.64) rotate(135)" xlink:href="#linear-gradient-2"/><linearGradient id="linear-gradient-9" x1="58.69" y1="174.44" x2="74.01" y2="174.44" gradientTransform="translate(236.62 250.87) rotate(135)" xlink:href="#linear-gradient-2"/><linearGradient id="linear-gradient-10" x1="272.74" y1="193.3" x2="183.77" y2="104.33" gradientUnits="userSpaceOnUse"><stop offset="0" stop-color="#77d0ed"/><stop offset="0.12" stop-color="#6fc7ea"/><stop offset="0.47" stop-color="#5eb2e2"/><stop offset="0.7" stop-color="#58abdf"/><stop offset="0.98" stop-color="#58aade"/></linearGradient></defs><path class="cls-1" d="M23.46,70.33h98.41a14,14,0,0,1,14,14v99.83a14,14,0,0,1-14,14H23.46a0,0,0,0,1,0,0V70.33a0,0,0,0,1,0,0Z" transform="translate(40.55 284.93) rotate(-135)"/><rect class="cls-2" x="78.62" y="79.37" width="16.7" height="12.99" rx="3.69" transform="translate(87.24 207.52) rotate(-135)"/><rect class="cls-3" x="92.29" y="107.15" width="44.94" height="12.99" rx="3.69" transform="translate(115.02 274.59) rotate(-135)"/><rect class="cls-4" x="58.89" y="101.77" width="32.86" height="12.99" rx="3.69" transform="translate(51.5 237.52) rotate(-135)"/><rect class="cls-5" x="90.61" y="131.99" width="29.87" height="12.99" rx="3.69" transform="translate(81.72 310.48) rotate(-135)"/><rect class="cls-6" x="41.95" y="117.09" width="22.55" height="12.99" rx="3.69" transform="translate(2.95 248.05) rotate(-135)"/><rect class="cls-7" x="66.86" y="137.22" width="12.99" height="12.99" rx="3.69" transform="translate(23.09 296.66) rotate(-135)"/><rect class="cls-8" x="20.43" y="141.71" width="39.39" height="12.99" rx="3.69" transform="translate(-36.83 280.81) rotate(-135)"/><rect class="cls-9" x="59.85" y="167.94" width="12.99" height="12.99" rx="3.69" transform="translate(-10.6 344.14) rotate(-135)"/><path class="cls-10" d="M379.11,75.25,308.53,4.67a14,14,0,0,0-19.8,0L121.9,171.49l0-.05a70,70,0,0,1-95.08.22l-.05.06,47.47,47.46h0l40.89,40.89a70,70,0,0,0,99,0l165-165A14,14,0,0,0,379.11,75.25Z" transform="translate(-0.52 -0.57)"/><g class="cls-11"><path class="cls-12" d="M95,59.21a14,14,0,0,0-19.8,0L4.62,129.79a14,14,0,0,0,0,19.8l14.72,14.72a4.23,4.23,0,0,1,.61.51l.1.08-1.13-1.13a43.75,43.75,0,0,0,61.88,0l59.39-59.39Z" transform="translate(-0.52 -0.57)"/></g></svg>